<?xml version="1.0" encoding="utf-8"?>
<!-- Generator: Adobe Illustrator 23.0.3, SVG Export Plug-In . SVG Version: 6.00 Build 0)  -->
<svg version="1.1" id="Layer_1" xmlns="http://www.w3.org/2000/svg" xmlns:xlink="http://www.w3.org/1999/xlink" x="0px" y="0px"
	 viewBox="0 0 256 250" style="enable-background:new 0 0 256 250;" xml:space="preserve">
<style type="text/css">
	.st0{fill:#FEB672;}
	.st1{opacity:0.27;fill:#FFFFFF;}
	.st2{clip-path:url(#SVGID_2_);fill:#FFFFFF;}
</style>
<circle class="st0" cx="128.2" cy="125" r="123"/>
<rect x="301.7" y="-10.8" transform="matrix(0.9209 -0.3898 0.3898 0.9209 9.3424 145.0018)" class="st1" width="120.5" height="120.5"/>
<g>
	<defs>
		<path id="SVGID_1_" d="M104.4,59.4C67.9,71.8,48.4,111.5,60.8,148c9.9,29.2,37.3,47.6,66.6,47.4c3.5-0.5,4-3,3.4-4.7
			c-0.5-1.6-2.4-6.8-4.3-12.3c-17,10.3-24.9-0.2-24.9-0.2C96,171.5,91,171,91,171c-7.4-2.1-0.9-4.2-0.9-4.2
			c6.8-1.8,12.5,3.4,12.5,3.4c9.3,8.1,17.9,1.9,21.1-1c-0.9-4.5-0.1-8,1.2-10.3c-15.3,3.3-32.6,2.9-41.2-22.4
			c-2.5-7.2-1.9-14,0.8-20.1c-1.3-1.4-5.8-7.4-5.3-17.7c0,0,4.9-3.7,20.5,0.6c4.8-3.3,10.2-5.9,15.8-7.9c5.6-1.9,11.5-3.1,17.3-3.4
			c9.7-12.8,15.9-13,15.9-13c6.7,7.9,6.7,15.4,6.6,17.3c5.8,3.2,10.4,8.2,12.8,15.4c8.6,25.4-4.9,36.3-19.1,42.9
			c3.1,1.2,6.6,4.6,8.7,10.7c3,8.8,5.4,16,6.1,18.2c0.6,1.8,2.5,3.4,5.6,1.6c23.3-17.7,33.8-48.9,23.9-78.1
			C180.7,66.5,141,47,104.4,59.4z M95.1,167.7c0,0.4-0.5,0.7-1.1,0.6c-0.6-0.1-1-0.4-0.9-0.8c0-0.4,0.5-0.7,1.1-0.6
			C94.7,166.9,95.2,167.3,95.1,167.7z M99.4,169.5c-0.2,0.4-0.9,0.5-1.5,0.2c-0.6-0.3-0.9-0.9-0.7-1.3c0.2-0.4,0.9-0.5,1.5-0.2
			C99.3,168.5,99.6,169.1,99.4,169.5z M102.9,172.4c-0.3,0.4-1.1,0.4-1.7-0.1c-0.6-0.5-0.8-1.2-0.5-1.6c0.3-0.4,1.1-0.4,1.7,0.1
			C102.9,171.3,103.2,172,102.9,172.4z M108.1,175.4c-0.2,0.5-1,0.7-1.8,0.3c-0.8-0.3-1.2-1-0.9-1.6c0.2-0.5,1-0.7,1.8-0.3
			C107.9,174.2,108.3,174.9,108.1,175.4z M113.5,175.2c0,0.6-0.6,1.1-1.5,1.1c-0.8,0-1.5-0.4-1.5-1c0-0.6,0.6-1.1,1.5-1.1
			C112.7,174.2,113.4,174.6,113.5,175.2z M119.2,174c0.2,0.5-0.3,1.2-1.1,1.5c-0.8,0.3-1.6,0.1-1.8-0.5c-0.2-0.6,0.3-1.2,1.1-1.5
			C118.2,173.2,119,173.4,119.2,174z M124.6,171.9c0.3,0.5-0.1,1.2-0.8,1.6c-0.7,0.4-1.5,0.3-1.8-0.2c-0.3-0.5,0.1-1.2,0.8-1.7
			C123.5,171.3,124.3,171.4,124.6,171.9z"/>
	</defs>
	<clipPath id="SVGID_2_">
		<use xlink:href="#SVGID_1_"  style="overflow:visible;"/>
	</clipPath>
	<path class="st2" d="M185.5,107.5c-12.9-42.9-31.4-52.9-74.3-40s-52.9,31.4-40,74.3s31.4,52.9,74.3,40
		C188.4,169,198.3,150.4,185.5,107.5z"/>
</g>
</svg>
