<?xml version="1.0" encoding="utf-8"?>
<svg viewBox="40 0 144 36" width="100px" height="40px" xmlns="http://www.w3.org/2000/svg">
  <circle style="fill: rgb(216, 216, 216);" cx="17.908" cy="17.774" r="17.774" transform="matrix(-0.913156, 0.40761, -0.40761, -0.913156, 41.522671, 26.743078)"/>
  <g fill="none" fill-rule="evenodd">
    <g fill-rule="nonzero">
      <path fill="#E84C9B" d="M42.50477008 21.6072107c.83698636.4491462 1.61817363.6869295 2.0366668.6869295.27899546 0 .50219182-.0264203.75328773-.1585222l-4.35232904-10.1718408h4.79872178l1.95296817 5.57469718 1.7855709-5.57469717h4.7150232l-3.8501373 9.8283761c-1.08808225 2.7741384-2.25986315 3.8837937-4.82662132 3.8837937-1.6739727 0-3.12474907-.4491462-4.35232906-1.083235l1.33917818-2.9855013zm11.24351672-2.0872089c0-2.1400496 1.6460732-3.3025457 4.2407309-3.3025457.9485846 0 2.148265.18494256 2.6225573.39630548v-.18494256c0-.97755353-.6416896-1.5323812-2.0645664-1.5323812-1.1438813 0-2.0924659.23778328-3.0968495.6076684l-.8090868-2.9326606c1.2833791-.47556658 2.762055-.7661906 4.6871236-.7661906 2.2598632 0 3.7385391.4491462 4.7150231 1.373859.8369864.792611 1.1717809 1.82300525 1.1717809 3.35538647v5.997423h-4.6313245v-1.0568146c-.7811872.792611-1.8134704 1.3210183-3.2084477 1.3210183-2.1203654-.0264204-3.6269409-1.1624961-3.6269409-3.2761254zm6.9190873-.8982924v-.44914624c-.2789955-.10568146-.6695891-.18494256-1.0601828-.18494256-.920685 0-1.4228768.5284073-1.4228768 1.1889165v.0264203c0 .6076684.4742923 1.0303943 1.0601828 1.0303943.8090868.0264204 1.4228768-.6076684 1.4228768-1.6116423zm5.9147036-10.1982612h4.6313245v14.1084753h-4.6313245V8.4234482zm6.1100004 0h4.6313245v14.1084753h-4.6313245V8.4234482zm5.6357081 11.0965536c0-2.1400496 1.6460732-3.3025457 4.2407309-3.3025457.9485846 0 2.148265.18494256 2.6225573.39630548v-.18494256c0-.97755353-.6416896-1.5323812-2.0645664-1.5323812-1.1438813 0-2.0924659.23778328-3.0968495.6076684l-.8090868-2.9326606c1.2833791-.47556658 2.762055-.7661906 4.6871236-.7661906 2.2598632 0 3.7385391.4491462 4.7150231 1.373859.8369864.792611 1.1717809 1.82300525 1.1717809 3.35538647v5.997423h-4.6313245v-1.0568146c-.7811872.792611-1.8134704 1.3210183-3.2084477 1.3210183-2.1203654-.0264204-3.6269409-1.1624961-3.6269409-3.2761254zm6.9190873-.8982924v-.44914624c-.2789955-.10568146-.6695891-.18494256-1.0601828-.18494256-.920685 0-1.4228768.5284073-1.4228768 1.1889165v.0264203c0 .6076684.4742923 1.0303943 1.0601828 1.0303943.8090868.0264204 1.4228768-.6076684 1.4228768-1.6116423z" style="stroke: rgb(33, 102, 177);"/>
      <path fill="#2166B1" d="M90.7709834 17.3006911c0-2.98550134 2.45516-5.54827682 6.0821009-5.54827682 2.45516 0 4.1849318 1.18891646 5.0498177 2.9326606l-3.3200459 1.7701645c-.3905936-.6869295-.8648859-1.05681462-1.6460732-1.05681462-.976484 0-1.7018722.81903134-1.7018722 1.8494256v.02642037c0 1.10965537.7253882 1.90226637 1.6460731 1.90226637.8090869 0 1.2833791-.3963055 1.7297719-1.05681467l3.3758449 1.82300527c-1.0043836 1.7701645-2.7062559 2.8798198-5.3567127 2.8798198-3.3758449-.0264203-5.8589045-2.5627754-5.8589045-5.5218564zm11.2993159 0v-.05284074c0-2.98550133 2.6225572-5.52185644 6.2773977-5.52185644 3.6548404 0 6.2494981 2.50993474 6.2494981 5.49543607v.02642035c0 2.98550134-2.6225573 5.52185644-6.2773977 5.52185644s-6.2494981-2.5099347-6.2494981-5.4690157zm8.0629686 0v-.05284074c0-1.05681463-.8090869-1.87584597-1.84137-1.87584597-1.0322832 0-1.7855709.81903132-1.7855709 1.8494256v.02642035c0 1.05681464.8090868 1.87584594 1.84137 1.87584594 1.0322831 0 1.7855709-.8190313 1.7855709-1.8230052zm5.4962104-5.3369139h4.6313245v1.4002794c.7253882-.87187208 1.84137-1.66448305 3.375845-1.66448305 1.5065754 0 2.6783563.6076684 3.2921463 1.74374414.9485846-1.0039739 2.0645664-1.74374416 3.7664386-1.74374416 2.3993609 0 3.8501373 1.47954048 3.8501373 3.8573734v6.97497655h-4.6313245v-5.60111754c0-.89829243-.5579909-1.40027938-1.22758-1.40027938-.6695891 0-1.2833791.50198694-1.2833791 1.40027937v5.60111753h-4.6313245v-5.60111753c0-.89829243-.5579909-1.40027938-1.22758-1.40027938-.6695891 0-1.2833791.50198694-1.2833791 1.40027937v5.60111753h-4.6313245V11.9637772zm20.2550699 0h4.6313245v1.29459793c.7532873-.7661906 1.6181733-1.55880158 3.3200463-1.55880158 2.706255 0 4.798721 2.21931072 4.798721 5.44259535v.02642036c0 3.35538644-2.120365 5.57469714-4.770822 5.57469714-1.701872 0-2.622557-.6869295-3.3479453-1.4531201v4.3065196h-4.6313245V11.9637772zm8.2582658 5.31049353c0-1.083235-.809087-1.9286867-1.86927-1.9286867-1.060183 0-1.8692695.81903133-1.8692695 1.90226633v.02642037c0 1.05681467.8090865 1.90226637 1.8692695 1.90226637 1.060183 0 1.86927-.8454517 1.86927-1.90226637zm5.105616 2.24573107c0-2.1400496 1.646074-3.3025457 4.240731-3.3025457.948585 0 2.148265.18494256 2.622557.39630548v-.18494256c0-.97755353-.641689-1.5323812-2.064566-1.5323812-1.143881 0-2.092466.23778328-3.096849.6076684l-.809087-2.9326606c1.283379-.47556658 2.762055-.7661906 4.687123-.7661906 2.259864 0 3.738539.4491462 4.715024 1.373859.836986.792611 1.17178 1.82300525 1.17178 3.35538647v5.997423h-4.631324v-1.0568146c-.781187.792611-1.81347 1.3210183-3.208448 1.3210183-2.120365-.0264204-3.626941-1.1624961-3.626941-3.2761254zm6.919088-.8982924v-.44914624c-.278996-.10568146-.66959-.18494256-1.060183-.18494256-.920685 0-1.422877.5284073-1.422877 1.1889165v.0264203c0 .6076684.474292 1.0303943 1.060183 1.0303943.809087.0264204 1.422877-.6076684 1.422877-1.6116423zm5.886804-6.6579322h4.631324v2.14004963c.64169-1.42669975 1.646073-2.35141255 3.487443-2.27215145v4.64998437h-.502191c-1.952969 0-3.013151 1.03039427-3.013151 3.35538645v2.6948773h-4.631325l.0279-10.5681463zm8.481461 5.3369139c0-3.1704439 2.399361-5.57469718 5.747307-5.57469718 3.961735 0 5.803105 2.6156162 5.803105 5.81248046 0 .2377833 0 .50198695-.027899.73977022h-7.170184c.334795.9247128 1.115982 1.4002794 2.092466 1.4002794.836987 0 1.534475-.3698851 2.259864-1.083235l2.483059 1.875846c-1.115982 1.3474386-2.678356 2.2985718-5.077717 2.2985718-3.626941 0-6.110001-2.16647-6.110001-5.4690157zm7.309681-.95113318c-.111598-1.0039739-.725388-1.58522194-1.562374-1.58522194-.781188 0-1.339178.6076684-1.478676 1.58522194h3.04105z" style="stroke-linecap: round; paint-order: stroke; stroke: rgb(232, 76, 155);"/>
    </g>
    <path fill="#2166B1" d="M34.5087535 24.2777721c-2.5857976 6.6199246-9.0376643 11.3107356-16.5876207 11.3107356-5.2276737 0-9.92888672-2.2489302-13.18476738-5.8300043.72877228.1207678 1.4909916.1873233 2.2866579.1873233 3.86972268 0 5.63633528-1.6542782 7.27676118-5.7899736l5.804584-14.6521779h-7.1085123l-2.691981 8.3107783-2.94435424-8.3107783h-5.1593224C5.1913596 3.89510203 11.1093099.076664 17.9211328.076664c7.486732 0 13.8936883 4.61257687 16.5218475 11.1448345-1.3892782-1.0766596-3.2199191-1.7178233-5.4461657-1.7178233-5.4680864 0-9.1695603 3.8205948-9.1695603 8.2713908 0 4.4114084 3.7435361 8.1926156 8.8330627 8.2320032 2.4634451 0 4.3833578-.6287284 5.8484365-1.7292971zm.9232188-3.2604217l-3.7852389-2.0212696c-.6729953.9846894-1.3880527 1.575503-2.6078566 1.575503-1.3880527 0-2.48167-1.1816272-2.48167-2.875293 0-1.5361154 1.0936173-2.7571302 2.5657944-2.7571302 1.1777417 0 1.8927991.551426 2.48167 1.575503l3.8017723-2.0043852c.2041733 1.0762357.3110001 2.1868245.3110001 3.3223075 0 1.0871767-.0979308 2.1515323-.2854713 3.1847645zM1.8038501 25.3713663C.72676734 23.083059.124822 20.5279589.124822 17.8325859c0-2.0896579.36180094-4.0950044 1.02631265-5.9570835L6.6865257 24.6678916c-.37855982.1969379-.71505745.2363255-1.13567948.2363255-.63093305 0-1.80867474-.3544882-3.07054084-1.024077l-.67645528 1.4912262z"/>
  </g>
</svg>