<?xml version="1.0" encoding="utf-8"?>
<!-- Generator: Adobe Illustrator 23.0.3, SVG Export Plug-In . SVG Version: 6.00 Build 0)  -->
<svg version="1.1" id="Layer_1" xmlns="http://www.w3.org/2000/svg" xmlns:xlink="http://www.w3.org/1999/xlink" x="0px" y="0px"
	 viewBox="0 0 80 80" width="80px" height="80px" xml:space="preserve">
<style type="text/css">
	.st0{display:none;fill:#D8D8D8;}
	.st1{fill:#E84C9B;stroke:#2166B1;}
	.st2{fill:#2166B1;stroke:#E84C9B;stroke-linecap:round;}
	.st3{display:none;fill-rule:evenodd;clip-rule:evenodd;fill:#2166B1;}
	.st4{fill-rule:evenodd;clip-rule:evenodd;fill:#D8D8D8;}
	.st5{fill-rule:evenodd;clip-rule:evenodd;fill:#2166B1;}
</style>
<circle class="st0" cx="35.9" cy="35.6" r="35.5"/>
<g>
	<g>
		<path class="st1" d="M85,43.2c1.7,0.9,3.2,1.4,4.1,1.4c0.6,0,1-0.1,1.5-0.3l-8.7-20.3h9.6l3.9,11.1L99,23.9h9.4l-7.7,19.7
			c-2.2,5.5-4.5,7.8-9.7,7.8c-3.3,0-6.2-0.9-8.7-2.2C82.3,49.2,85,43.2,85,43.2z M107.5,39c0-4.3,3.3-6.6,8.5-6.6
			c1.9,0,4.3,0.4,5.2,0.8v-0.4c0-2-1.3-3.1-4.1-3.1c-2.3,0-4.2,0.5-6.2,1.2l-1.6-5.9c2.6-1,5.5-1.5,9.4-1.5c4.5,0,7.5,0.9,9.4,2.7
			c1.7,1.6,2.3,3.6,2.3,6.7v12h-9.3V43c-1.6,1.6-3.6,2.6-6.4,2.6C110.5,45.5,107.5,43.3,107.5,39z M121.3,37.2v-0.9
			c-0.6-0.2-1.3-0.4-2.1-0.4c-1.8,0-2.8,1.1-2.8,2.4v0.1c0,1.2,0.9,2.1,2.1,2.1C120.1,40.5,121.3,39.3,121.3,37.2z M133.2,16.8h9.3
			v28.2h-9.3C133.2,45.1,133.2,16.8,133.2,16.8z M145.4,16.8h9.3v28.2h-9.3C145.4,45.1,145.4,16.8,145.4,16.8z M156.7,39
			c0-4.3,3.3-6.6,8.5-6.6c1.9,0,4.3,0.4,5.2,0.8v-0.4c0-2-1.3-3.1-4.1-3.1c-2.3,0-4.2,0.5-6.2,1.2l-1.6-5.9c2.6-1,5.5-1.5,9.4-1.5
			c4.5,0,7.5,0.9,9.4,2.7c1.7,1.6,2.3,3.6,2.3,6.7v12h-9.3V43c-1.6,1.6-3.6,2.6-6.4,2.6C159.7,45.5,156.7,43.3,156.7,39L156.7,39z
			 M170.5,37.2v-0.9c-0.6-0.2-1.3-0.4-2.1-0.4c-1.8,0-2.8,1.1-2.8,2.4v0.1c0,1.2,0.9,2.1,2.1,2.1C169.3,40.5,170.5,39.3,170.5,37.2z
			"/>
		<path class="st2" d="M181.5,34.6c0-6,4.9-11.1,12.2-11.1c4.9,0,8.4,2.4,10.1,5.9l-6.6,3.5c-0.8-1.4-1.7-2.1-3.3-2.1
			c-2,0-3.4,1.6-3.4,3.7v0.1c0,2.2,1.5,3.8,3.3,3.8c1.6,0,2.6-0.8,3.5-2.1l6.8,3.6c-2,3.5-5.4,5.8-10.7,5.8
			C186.5,45.6,181.5,40.5,181.5,34.6L181.5,34.6z M204.1,34.6v-0.1c0-6,5.2-11,12.6-11s12.5,5,12.5,11v0.1c0,6-5.2,11-12.6,11
			S204.1,40.5,204.1,34.6z M220.3,34.6v-0.1c0-2.1-1.6-3.8-3.7-3.8s-3.6,1.6-3.6,3.7v0.1c0,2.1,1.6,3.8,3.7,3.8
			S220.3,36.6,220.3,34.6z M231.3,23.9h9.3v2.8c1.5-1.7,3.7-3.3,6.8-3.3c3,0,5.4,1.2,6.6,3.5c1.9-2,4.1-3.5,7.5-3.5
			c4.8,0,7.7,3,7.7,7.7v13.9h-9.3V33.9c0-1.8-1.1-2.8-2.5-2.8c-1.3,0-2.6,1-2.6,2.8v11.2h-9.3V33.9c0-1.8-1.1-2.8-2.5-2.8
			s-2.6,1-2.6,2.8v11.2h-9.3L231.3,23.9L231.3,23.9z M271.8,23.9h9.3v2.6c1.5-1.5,3.2-3.1,6.6-3.1c5.4,0,9.6,4.4,9.6,10.9v0.1
			c0,6.7-4.2,11.1-9.5,11.1c-3.4,0-5.2-1.4-6.7-2.9v8.6h-9.3V23.9z M288.3,34.5c0-2.2-1.6-3.9-3.7-3.9s-3.7,1.6-3.7,3.8v0.1
			c0,2.1,1.6,3.8,3.7,3.8S288.3,36.7,288.3,34.5z M298.5,39c0-4.3,3.3-6.6,8.5-6.6c1.9,0,4.3,0.4,5.2,0.8v-0.4c0-2-1.3-3.1-4.1-3.1
			c-2.3,0-4.2,0.5-6.2,1.2l-1.6-5.9c2.6-1,5.5-1.5,9.4-1.5c4.5,0,7.5,0.9,9.4,2.7c1.7,1.6,2.3,3.6,2.3,6.7v12h-9.3V43
			c-1.6,1.6-3.6,2.6-6.4,2.6C301.5,45.5,298.5,43.3,298.5,39L298.5,39z M312.3,37.2v-0.9c-0.6-0.2-1.3-0.4-2.1-0.4
			c-1.8,0-2.8,1.1-2.8,2.4v0.1c0,1.2,0.9,2.1,2.1,2.1C311.1,40.5,312.3,39.3,312.3,37.2z M324.1,23.9h9.3v4.3c1.3-2.9,3.3-4.7,7-4.5
			V33h-1c-3.9,0-6,2.1-6,6.7v5.4h-9.3L324.1,23.9L324.1,23.9z M341.1,34.6c0-6.3,4.8-11.1,11.5-11.1c7.9,0,11.6,5.2,11.6,11.6
			c0,0.5,0,1-0.1,1.5h-14.3c0.7,1.8,2.2,2.8,4.2,2.8c1.7,0,3.1-0.7,4.5-2.2l5,3.8c-2.2,2.7-5.4,4.6-10.2,4.6
			C346,45.5,341.1,41.2,341.1,34.6z M355.7,32.7c-0.2-2-1.5-3.2-3.1-3.2c-1.6,0-2.7,1.2-3,3.2H355.7L355.7,32.7z"/>
	</g>
	<path class="st3" d="M4.4,19c6-11.2,17.8-18.9,31.4-18.9c15,0,27.8,9.2,33,22.3C66.1,20.3,62.4,19,58,19
		c-10.9,0-18.3,7.6-18.3,16.5c0,8.8,7.5,16.4,17.7,16.5c4.9,0,8.8-1.3,11.7-3.5c-5.2,13.2-18.1,22.6-33.2,22.6
		c-10.5,0-19.9-4.5-26.4-11.7c1.5,0.2,3,0.4,4.6,0.4c7.7,0,11.3-3.3,14.6-11.6L40.2,19H26l-5.4,16.6 M70.9,42l-7.6-4
		c-1.3,2-2.8,3.2-5.2,3.2c-2.8,0-5-2.4-5-5.8c0-3.1,2.2-5.5,5.1-5.5c2.4,0,3.8,1.1,5,3.2l7.6-4c0.4,2.2,0.6,4.4,0.6,6.6
		C71.4,37.8,71.2,40,70.9,42z M3.6,50.7c-2.2-4.6-3.4-9.7-3.4-15.1c0-4.2,0.7-8.2,2.1-11.9l11.1,25.6c-0.8,0.4-1.4,0.5-2.3,0.5
		c-1.3,0-3.6-0.7-6.1-2C5,47.8,3.6,50.7,3.6,50.7z"/>
	<g>
		<path class="st4" d="M4.4,39.9c0,19.7,15.9,35.6,35.6,35.6s35.6-15.9,35.6-35.6S59.7,4.5,40,4.5S4.4,20.3,4.4,39.9z"/>
		<path class="st5" d="M73.2,52.9C68,66.1,55.1,75.5,40,75.5c-10.5,0-19.9-4.5-26.4-11.7c1.5,0.2,3,0.4,4.6,0.4
			c7.7,0,11.3-3.3,14.6-11.6l11.6-29.3H30.1L24.8,40l-5.9-16.6H8.5C14.5,12.1,26.4,4.5,40,4.5c15,0,27.8,9.2,33,22.3
			c-2.8-2.2-6.4-3.4-10.9-3.4c-10.9,0-18.3,7.6-18.3,16.5c0,8.8,7.5,16.4,17.7,16.5C66.4,56.3,70.2,55.1,73.2,52.9z M75,46.4l-7.6-4
			c-1.3,2-2.8,3.2-5.2,3.2c-2.8,0-5-2.4-5-5.8c0-3.1,2.2-5.5,5.1-5.5c2.4,0,3.8,1.1,5,3.2l7.6-4c0.4,2.2,0.6,4.4,0.6,6.6
			C75.6,42.2,75.4,44.3,75,46.4z M7.8,55.1C5.6,50.5,4.4,45.4,4.4,40c0-4.2,0.7-8.2,2.1-11.9l11.1,25.6c-0.8,0.4-1.4,0.5-2.3,0.5
			c-1.3,0-3.6-0.7-6.1-2C9.1,52.1,7.8,55.1,7.8,55.1z"/>
	</g>
</g>
</svg>
